name Walk6.mot
datacolumns 19
datarows 20
range 1.65200000 1.67100000
endheader

                time	   L_ground_force_vx	   L_ground_force_vy	   L_ground_force_vz	   L_ground_force_px	   L_ground_force_py	   L_ground_force_pz	   R_ground_force_vx	   R_ground_force_vy	   R_ground_force_vz	   R_ground_force_px	   R_ground_force_py	   R_ground_force_pz	   L_ground_torque_x	   L_ground_torque_y	   L_ground_torque_z	   R_ground_torque_x	   R_ground_torque_y	   R_ground_torque_z	
          1.65200000	          0.00000000	          0.00000000	          0.00000000	          0.00000000	          0.00000000	          0.00000000	         19.48379891	        674.24622647	         -9.19430634	         -0.11043874	          0.00000000	          0.32660206	          0.00000000	          0.00000000	          0.00000000	          0.00000000	          0.95885328	          0.00000000	
          1.65300000	          0.00000000	          0.00000000	          0.00000000	          0.00000000	          0.00000000	          0.00000000	         20.05076258	        676.40520770	         -9.25702286	         -0.11011970	          0.00000000	          0.32663431	          0.00000000	          0.00000000	          0.00000000	          0.00000000	          0.91934862	          0.00000000	
          1.65400000	          0.00000000	          0.00000000	          0.00000000	          0.00000000	          0.00000000	          0.00000000	         20.61124425	        678.51984797	         -9.30338409	         -0.10979439	          0.00000000	          0.32668027	          0.00000000	          0.00000000	          0.00000000	          0.00000000	          0.89584826	          0.00000000	
          1.65500000	          0.00000000	          0.00000000	          0.00000000	          0.00000000	          0.00000000	          0.00000000	         21.16951945	        680.66031031	         -9.32828389	         -0.10948163	          0.00000000	          0.32670906	          0.00000000	          0.00000000	          0.00000000	          0.00000000	          0.88759962	          0.00000000	
          1.65600000	          0.00000000	          0.00000000	          0.00000000	          0.00000000	          0.00000000	          0.00000000	         21.73509757	        682.87480742	         -9.32815750	         -0.10918306	          0.00000000	          0.32668695	          0.00000000	          0.00000000	          0.00000000	          0.00000000	          0.89042534	          0.00000000	
          1.65700000	          0.00000000	          0.00000000	          0.00000000	          0.00000000	          0.00000000	          0.00000000	         22.31908105	        685.14510575	         -9.29959550	         -0.10888938	          0.00000000	          0.32662427	          0.00000000	          0.00000000	          0.00000000	          0.00000000	          0.90065791	          0.00000000	
          1.65800000	          0.00000000	          0.00000000	          0.00000000	          0.00000000	          0.00000000	          0.00000000	         22.93045621	        687.43766844	         -9.24998243	         -0.10859764	          0.00000000	          0.32655363	          0.00000000	          0.00000000	          0.00000000	          0.00000000	          0.91414443	          0.00000000	
          1.65900000	          0.00000000	          0.00000000	          0.00000000	          0.00000000	          0.00000000	          0.00000000	         23.57204454	        689.75502427	         -9.20861066	         -0.10831959	          0.00000000	          0.32650026	          0.00000000	          0.00000000	          0.00000000	          0.00000000	          0.92304353	          0.00000000	
          1.66000000	          0.00000000	          0.00000000	          0.00000000	          0.00000000	          0.00000000	          0.00000000	         24.23760709	        692.11031178	         -9.21356094	         -0.10807458	          0.00000000	          0.32648642	          0.00000000	          0.00000000	          0.00000000	          0.00000000	          0.91641490	          0.00000000	
          1.66100000	          0.00000000	          0.00000000	          0.00000000	          0.00000000	          0.00000000	          0.00000000	         24.91756651	        694.49912631	         -9.27841394	         -0.10787379	          0.00000000	          0.32652124	          0.00000000	          0.00000000	          0.00000000	          0.00000000	          0.88810194	          0.00000000	
          1.66200000	          0.00000000	          0.00000000	          0.00000000	          0.00000000	          0.00000000	          0.00000000	         25.60442231	        696.90108072	         -9.38479748	         -0.10771552	          0.00000000	          0.32658250	          0.00000000	          0.00000000	          0.00000000	          0.00000000	          0.84248770	          0.00000000	
          1.66300000	          0.00000000	          0.00000000	          0.00000000	          0.00000000	          0.00000000	          0.00000000	         26.28501670	        699.28296457	         -9.51697229	         -0.10758950	          0.00000000	          0.32663552	          0.00000000	          0.00000000	          0.00000000	          0.00000000	          0.78928569	          0.00000000	
          1.66400000	          0.00000000	          0.00000000	          0.00000000	          0.00000000	          0.00000000	          0.00000000	         26.93389630	        701.62686422	         -9.68706710	         -0.10747497	          0.00000000	          0.32665792	          0.00000000	          0.00000000	          0.00000000	          0.00000000	          0.73593049	          0.00000000	
          1.66500000	          0.00000000	          0.00000000	          0.00000000	          0.00000000	          0.00000000	          0.00000000	         27.52382313	        703.94652900	         -9.92325691	         -0.10734195	          0.00000000	          0.32664817	          0.00000000	          0.00000000	          0.00000000	          0.00000000	          0.68407899	          0.00000000	
          1.66600000	          0.00000000	          0.00000000	          0.00000000	          0.00000000	          0.00000000	          0.00000000	         28.04520979	        706.24315076	        -10.24625025	         -0.10716636	          0.00000000	          0.32662666	          0.00000000	          0.00000000	          0.00000000	          0.00000000	          0.62887369	          0.00000000	
          1.66700000	          0.00000000	          0.00000000	          0.00000000	          0.00000000	          0.00000000	          0.00000000	         28.52351491	        708.49179705	        -10.64554228	         -0.10694773	          0.00000000	          0.32661656	          0.00000000	          0.00000000	          0.00000000	          0.00000000	          0.56330802	          0.00000000	
          1.66800000	          0.00000000	          0.00000000	          0.00000000	          0.00000000	          0.00000000	          0.00000000	         29.01752822	        710.68824799	        -11.06598564	         -0.10670736	          0.00000000	          0.32662923	          0.00000000	          0.00000000	          0.00000000	          0.00000000	          0.48718682	          0.00000000	
          1.66900000	          0.00000000	          0.00000000	          0.00000000	          0.00000000	          0.00000000	          0.00000000	         29.58967304	        712.85628244	        -11.43956089	         -0.10647203	          0.00000000	          0.32667112	          0.00000000	          0.00000000	          0.00000000	          0.00000000	          0.40934250	          0.00000000	
          1.67000000	          0.00000000	          0.00000000	          0.00000000	          0.00000000	          0.00000000	          0.00000000	         30.28273839	        715.01463981	        -11.73428651	         -0.10626095	          0.00000000	          0.32673879	          0.00000000	          0.00000000	          0.00000000	          0.00000000	          0.33894367	          0.00000000	
          1.67100000	          0.00000000	          0.00000000	          0.00000000	          0.00000000	          0.00000000	          0.00000000	         31.11901785	        717.16512448	        -11.95574017	         -0.10607555	          0.00000000	          0.32680852	          0.00000000	          0.00000000	          0.00000000	          0.00000000	          0.27893999	          0.00000000	
